<svg width="150" height="70" viewBox="0 0 784 70" fill="none" xmlns="http://www.w3.org/2000/svg">
<path d="M0.0720001 35.016C0.0720001 28.36 1.448 22.44 4.2 17.256C7.016 12.008 10.984 7.944 16.104 5.064C21.224 2.12 27.112 0.647999 33.768 0.647999C42.216 0.647999 49.32 2.92 55.08 7.464C60.84 11.944 64.552 18.056 66.216 25.8H45.96C44.744 23.24 43.048 21.288 40.872 19.944C38.76 18.6 36.296 17.928 33.48 17.928C29.128 17.928 25.64 19.496 23.016 22.632C20.456 25.704 19.176 29.832 19.176 35.016C19.176 40.264 20.456 44.456 23.016 47.592C25.64 50.664 29.128 52.2 33.48 52.2C36.296 52.2 38.76 51.528 40.872 50.184C43.048 48.84 44.744 46.888 45.96 44.328H66.216C64.552 52.072 60.84 58.216 55.08 62.76C49.32 67.24 42.216 69.48 33.768 69.48C27.112 69.48 21.224 68.04 16.104 65.16C10.984 62.216 7.016 58.152 4.2 52.968C1.448 47.72 0.0720001 41.736 0.0720001 35.016ZM100.182 69.672C94.806 69.672 89.974 68.552 85.686 66.312C81.462 64.072 78.134 60.872 75.702 56.712C73.27 52.552 72.054 47.656 72.054 42.024C72.054 36.456 73.27 31.592 75.702 27.432C78.198 23.272 81.558 20.072 85.782 17.832C90.07 15.592 94.902 14.472 100.278 14.472C105.654 14.472 110.454 15.592 114.678 17.832C118.966 20.072 122.326 23.272 124.758 27.432C127.254 31.592 128.502 36.456 128.502 42.024C128.502 47.592 127.254 52.488 124.758 56.712C122.326 60.872 118.966 64.072 114.678 66.312C110.39 68.552 105.558 69.672 100.182 69.672ZM100.182 53.352C102.806 53.352 104.982 52.392 106.71 50.472C108.502 48.488 109.398 45.672 109.398 42.024C109.398 38.376 108.502 35.592 106.71 33.672C104.982 31.752 102.838 30.792 100.278 30.792C97.718 30.792 95.574 31.752 93.846 33.672C92.118 35.592 91.254 38.376 91.254 42.024C91.254 45.736 92.086 48.552 93.75 50.472C95.414 52.392 97.558 53.352 100.182 53.352ZM171.389 14.664C177.597 14.664 182.525 16.744 186.173 20.904C189.821 25 191.645 30.568 191.645 37.608V69H172.829V40.104C172.829 37.032 172.029 34.632 170.429 32.904C168.829 31.112 166.685 30.216 163.997 30.216C161.181 30.216 158.973 31.112 157.373 32.904C155.773 34.632 154.973 37.032 154.973 40.104V69H136.157V15.144H154.973V22.824C156.637 20.392 158.877 18.44 161.693 16.968C164.509 15.432 167.741 14.664 171.389 14.664ZM224.914 69.672C220.05 69.672 215.698 68.872 211.858 67.272C208.082 65.608 205.074 63.368 202.834 60.552C200.658 57.672 199.442 54.44 199.186 50.856H217.426C217.682 52.584 218.482 53.928 219.826 54.888C221.17 55.848 222.834 56.328 224.818 56.328C226.354 56.328 227.57 56.008 228.466 55.368C229.362 54.728 229.81 53.896 229.81 52.872C229.81 51.528 229.074 50.536 227.602 49.896C226.13 49.256 223.698 48.552 220.306 47.784C216.466 47.016 213.266 46.152 210.706 45.192C208.146 44.232 205.906 42.664 203.986 40.488C202.13 38.312 201.202 35.368 201.202 31.656C201.202 28.456 202.066 25.576 203.794 23.016C205.522 20.392 208.05 18.312 211.378 16.776C214.77 15.24 218.834 14.472 223.57 14.472C230.61 14.472 236.146 16.2 240.178 19.656C244.21 23.112 246.546 27.656 247.186 33.288H230.194C229.874 31.56 229.106 30.248 227.89 29.352C226.738 28.392 225.17 27.912 223.186 27.912C221.65 27.912 220.466 28.2 219.634 28.776C218.866 29.352 218.482 30.152 218.482 31.176C218.482 32.456 219.218 33.448 220.69 34.152C222.162 34.792 224.53 35.464 227.794 36.168C231.698 37 234.93 37.928 237.49 38.952C240.114 39.976 242.386 41.64 244.306 43.944C246.29 46.184 247.282 49.256 247.282 53.16C247.282 56.296 246.354 59.112 244.498 61.608C242.706 64.104 240.114 66.088 236.722 67.56C233.394 68.968 229.458 69.672 224.914 69.672ZM288.308 52.968V69H280.148C266.388 69 259.508 62.184 259.508 48.552V30.792H252.884V15.144H259.508V2.088H278.42V15.144H288.212V30.792H278.42V48.84C278.42 50.312 278.74 51.368 279.38 52.008C280.084 52.648 281.236 52.968 282.836 52.968H288.308ZM315.755 24.648C317.867 21.576 320.427 19.144 323.435 17.352C326.443 15.56 329.675 14.664 333.131 14.664V34.728H327.851C323.755 34.728 320.715 35.528 318.731 37.128C316.747 38.728 315.755 41.512 315.755 45.48V69H296.939V15.144H315.755V24.648ZM394.98 15.144V69H376.068V61.32C374.468 63.752 372.26 65.736 369.444 67.272C366.628 68.744 363.396 69.48 359.748 69.48C353.476 69.48 348.516 67.432 344.868 63.336C341.284 59.176 339.492 53.544 339.492 46.44V15.144H358.212V44.04C358.212 47.112 359.012 49.544 360.612 51.336C362.276 53.064 364.452 53.928 367.14 53.928C369.892 53.928 372.068 53.064 373.668 51.336C375.268 49.544 376.068 47.112 376.068 44.04V15.144H394.98ZM402.617 42.024C402.617 36.456 403.769 31.592 406.073 27.432C408.377 23.272 411.577 20.072 415.673 17.832C419.833 15.592 424.569 14.472 429.881 14.472C436.729 14.472 442.489 16.36 447.161 20.136C451.833 23.848 454.841 29.064 456.185 35.784H436.217C435.065 32.264 432.825 30.504 429.497 30.504C427.129 30.504 425.241 31.496 423.833 33.48C422.489 35.4 421.817 38.248 421.817 42.024C421.817 45.8 422.489 48.68 423.833 50.664C425.241 52.648 427.129 53.64 429.497 53.64C432.889 53.64 435.129 51.88 436.217 48.36H456.185C454.841 55.016 451.833 60.232 447.161 64.008C442.489 67.784 436.729 69.672 429.881 69.672C424.569 69.672 419.833 68.552 415.673 66.312C411.577 64.072 408.377 60.872 406.073 56.712C403.769 52.552 402.617 47.656 402.617 42.024ZM495.777 52.968V69H487.617C473.857 69 466.977 62.184 466.977 48.552V30.792H460.353V15.144H466.977V2.088H485.889V15.144H495.681V30.792H485.889V48.84C485.889 50.312 486.209 51.368 486.849 52.008C487.553 52.648 488.705 52.968 490.305 52.968H495.777ZM567.095 69H548.279L523.223 31.176V69H504.407V1.32H523.223L548.279 39.624V1.32H567.095V69ZM602.87 69.672C597.494 69.672 592.662 68.552 588.374 66.312C584.15 64.072 580.822 60.872 578.39 56.712C575.958 52.552 574.742 47.656 574.742 42.024C574.742 36.456 575.958 31.592 578.39 27.432C580.886 23.272 584.246 20.072 588.47 17.832C592.758 15.592 597.59 14.472 602.966 14.472C608.342 14.472 613.142 15.592 617.366 17.832C621.654 20.072 625.014 23.272 627.446 27.432C629.942 31.592 631.19 36.456 631.19 42.024C631.19 47.592 629.942 52.488 627.446 56.712C625.014 60.872 621.654 64.072 617.366 66.312C613.078 68.552 608.246 69.672 602.87 69.672ZM602.87 53.352C605.494 53.352 607.67 52.392 609.398 50.472C611.19 48.488 612.086 45.672 612.086 42.024C612.086 38.376 611.19 35.592 609.398 33.672C607.67 31.752 605.526 30.792 602.966 30.792C600.406 30.792 598.262 31.752 596.534 33.672C594.806 35.592 593.942 38.376 593.942 42.024C593.942 45.736 594.774 48.552 596.438 50.472C598.102 52.392 600.246 53.352 602.87 53.352ZM670.621 52.968V69H662.461C648.701 69 641.821 62.184 641.821 48.552V30.792H635.197V15.144H641.821V2.088H660.733V15.144H670.525V30.792H660.733V48.84C660.733 50.312 661.053 51.368 661.693 52.008C662.397 52.648 663.549 52.968 665.149 52.968H670.621ZM730.707 41.448C730.707 42.92 730.611 44.392 730.419 45.864H694.803C694.995 48.808 695.795 51.016 697.203 52.488C698.675 53.896 700.531 54.6 702.771 54.6C705.907 54.6 708.147 53.192 709.491 50.376H729.555C728.723 54.088 727.091 57.416 724.659 60.36C722.291 63.24 719.283 65.512 715.635 67.176C711.987 68.84 707.955 69.672 703.539 69.672C698.227 69.672 693.491 68.552 689.331 66.312C685.235 64.072 682.003 60.872 679.635 56.712C677.331 52.552 676.179 47.656 676.179 42.024C676.179 36.392 677.331 31.528 679.635 27.432C681.939 23.272 685.139 20.072 689.235 17.832C693.395 15.592 698.163 14.472 703.539 14.472C708.851 14.472 713.555 15.56 717.651 17.736C721.747 19.912 724.947 23.048 727.251 27.144C729.555 31.176 730.707 35.944 730.707 41.448ZM711.507 36.744C711.507 34.44 710.739 32.648 709.203 31.368C707.667 30.024 705.747 29.352 703.443 29.352C701.139 29.352 699.251 29.992 697.779 31.272C696.307 32.488 695.347 34.312 694.899 36.744H711.507ZM761.351 69.672C756.487 69.672 752.135 68.872 748.295 67.272C744.519 65.608 741.511 63.368 739.271 60.552C737.095 57.672 735.879 54.44 735.623 50.856H753.863C754.119 52.584 754.919 53.928 756.263 54.888C757.607 55.848 759.271 56.328 761.255 56.328C762.791 56.328 764.007 56.008 764.903 55.368C765.799 54.728 766.247 53.896 766.247 52.872C766.247 51.528 765.511 50.536 764.039 49.896C762.567 49.256 760.135 48.552 756.743 47.784C752.903 47.016 749.703 46.152 747.143 45.192C744.583 44.232 742.343 42.664 740.423 40.488C738.567 38.312 737.639 35.368 737.639 31.656C737.639 28.456 738.503 25.576 740.231 23.016C741.959 20.392 744.487 18.312 747.815 16.776C751.207 15.24 755.271 14.472 760.007 14.472C767.047 14.472 772.583 16.2 776.615 19.656C780.647 23.112 782.983 27.656 783.623 33.288H766.631C766.311 31.56 765.543 30.248 764.327 29.352C763.175 28.392 761.607 27.912 759.623 27.912C758.087 27.912 756.903 28.2 756.071 28.776C755.303 29.352 754.919 30.152 754.919 31.176C754.919 32.456 755.655 33.448 757.127 34.152C758.599 34.792 760.967 35.464 764.231 36.168C768.135 37 771.367 37.928 773.927 38.952C776.551 39.976 778.823 41.64 780.743 43.944C782.727 46.184 783.719 49.256 783.719 53.16C783.719 56.296 782.791 59.112 780.935 61.608C779.143 64.104 776.551 66.088 773.159 67.56C769.831 68.968 765.895 69.672 761.351 69.672Z" fill="black"/>
</svg>
